<svg width="1200" height="630" viewBox="0 0 1200 630" fill="none" xmlns="http://www.w3.org/2000/svg">
  <rect width="1200" height="630" fill="#0B1020"/>
  <rect x="72" y="72" width="1056" height="486" rx="36" fill="#121A2B" stroke="#2D3A59" stroke-width="4"/>
  <rect x="108" y="108" width="984" height="96" rx="28" fill="#F8FAFC" stroke="#1E293B" stroke-width="4"/>
  <rect x="108" y="228" width="468" height="294" rx="28" fill="#1D4ED8" stroke="#93C5FD" stroke-width="4"/>
  <rect x="600" y="228" width="492" height="136" rx="28" fill="#F8FAFC" stroke="#1E293B" stroke-width="4"/>
  <rect x="600" y="386" width="236" height="136" rx="28" fill="#A7F3D0" stroke="#064E3B" stroke-width="4"/>
  <rect x="856" y="386" width="236" height="136" rx="28" fill="#FDE68A" stroke="#92400E" stroke-width="4"/>
  <rect x="146" y="150" width="190" height="30" rx="15" fill="#DBEAFE"/>
  <rect x="356" y="150" width="248" height="30" rx="15" fill="#E2E8F0"/>
  <text x="112" y="308" fill="white" font-family="Georgia, serif" font-size="60" font-weight="700">STUDYTYPE</text>
  <rect x="112" y="420" width="138" height="40" rx="20" fill="#F8FAFC"/>
  <rect x="264" y="420" width="164" height="40" rx="20" fill="#BFDBFE"/>
  <rect x="442" y="420" width="92" height="40" rx="20" fill="#F8FAFC"/>
</svg>
